<?xml version="1.0" standalone="no"?>
<!DOCTYPE svg PUBLIC "-//W3C//DTD SVG 20010904//EN"
 "http://www.w3.org/TR/2001/REC-SVG-20010904/DTD/svg10.dtd">
<svg version="1.0" xmlns="http://www.w3.org/2000/svg"
 width="461.000000pt" height="462.000000pt" viewBox="0 0 461.000000 462.000000"
 preserveAspectRatio="xMidYMid meet">

<g transform="translate(0.000000,462.000000) scale(0.100000,-0.100000)"
fill="#000000" stroke="none">
<path d="M463 2898 c-17 -84 -29 -156 -26 -161 2 -4 143 -7 311 -7 169 0 322
0 341 0 30 0 33 -2 27 -22 -14 -52 -236 -1116 -236 -1131 0 -15 20 -17 195
-17 107 0 195 4 195 8 0 4 43 212 96 462 52 250 106 509 120 575 14 66 26 121
28 122 3 4 798 4 801 1 2 -2 -50 -257 -116 -568 -65 -311 -119 -573 -119 -582
0 -17 16 -18 193 -18 l193 0 62 298 c35 163 63 303 62 310 0 9 107 12 505 12
431 0 505 -2 505 -14 0 -8 -27 -142 -60 -298 -33 -156 -60 -289 -60 -295 0
-10 46 -13 195 -13 107 0 195 2 195 4 0 4 58 282 139 666 11 52 54 256 95 453
42 198 76 361 76 363 0 2 -87 4 -194 4 -177 0 -195 -2 -200 -17 -6 -21 -106
-497 -106 -507 0 -3 -227 -6 -505 -6 -278 0 -505 2 -505 5 0 5 96 464 105 503
l5 22 -1143 0 -1143 0 -31 -152z"/>
</g>
</svg>
